<?xml version="1.0" encoding="UTF-8" standalone="no"?>
<!-- Created with Inkscape (http://www.inkscape.org/) -->

<svg
   width="24"
   height="21.749969"
   viewBox="0 0 24 21.749969"
   version="1.1"
   id="svg1"
   inkscape:version="1.4 (86a8ad7, 2024-10-11)"
   sodipodi:docname="balance.svg"
   inkscape:export-filename="balance.svg"
   inkscape:export-xdpi="141.24158"
   inkscape:export-ydpi="141.24158"
   xmlns:inkscape="http://www.inkscape.org/namespaces/inkscape"
   xmlns:sodipodi="http://sodipodi.sourceforge.net/DTD/sodipodi-0.dtd"
   xmlns="http://www.w3.org/2000/svg"
   xmlns:svg="http://www.w3.org/2000/svg">
  <sodipodi:namedview
     id="namedview1"
     pagecolor="#ffffff"
     bordercolor="#000000"
     borderopacity="0.25"
     inkscape:showpageshadow="2"
     inkscape:pageopacity="0.0"
     inkscape:pagecheckerboard="0"
     inkscape:deskcolor="#d1d1d1"
     inkscape:document-units="mm"
     showgrid="true"
     inkscape:zoom="38.198845"
     inkscape:cx="23.364581"
     inkscape:cy="9.4374581"
     inkscape:window-width="1147"
     inkscape:window-height="1211"
     inkscape:window-x="858"
     inkscape:window-y="416"
     inkscape:window-maximized="0"
     inkscape:current-layer="layer1">
    <inkscape:grid
       id="grid1"
       units="px"
       originx="-3.8749995"
       originy="-4.9187788"
       spacingx="0.26458332"
       spacingy="0.26458332"
       empcolor="#0099e5"
       empopacity="0.30196078"
       color="#0099e5"
       opacity="0.14901961"
       empspacing="10"
       enabled="true"
       visible="true" />
  </sodipodi:namedview>
  <defs
     id="defs1" />
  <g
     inkscape:label="Layer 1"
     inkscape:groupmode="layer"
     id="layer1"
     transform="translate(-3.8749995,-4.9187789)">
    <g
       id="g13"
       transform="matrix(3.7795279,0,0,3.7795279,-0.12500196,1.1687484)">
      <path
         style="fill:#f5a7a3;fill-opacity:1;stroke:#f5a7a3;stroke-width:0.264583;stroke-linecap:butt;stroke-linejoin:miter;stroke-dasharray:none;stroke-opacity:1"
         d="M 4.2333332,6.0854165 H 3.7041666 L 3.4395833,6.3499999 c 0,0 -0.2645834,0.2645833 -0.5291667,0.2645831 H 5.5562499 C 5.2916666,6.6145832 5.0270832,6.3499999 5.0270832,6.3499999 L 4.7624999,6.0854165 Z"
         id="path1"
         sodipodi:nodetypes="cccccccc" />
      <path
         style="fill:none;fill-opacity:1;stroke:#f5a7a3;stroke-width:0.264583;stroke-linecap:butt;stroke-linejoin:miter;stroke-dasharray:none;stroke-opacity:1"
         d="m 4.2333333,6.614583 -1e-7,-5.027083"
         id="path2"
         sodipodi:nodetypes="cc" />
      <path
         style="fill:none;fill-opacity:1;stroke:#f5a7a3;stroke-width:0.264583;stroke-linecap:butt;stroke-linejoin:round;stroke-dasharray:none;stroke-opacity:1"
         id="path3"
         sodipodi:type="arc"
         sodipodi:cx="2.1166668"
         sodipodi:cy="5.0270834"
         sodipodi:rx="0.92604166"
         sodipodi:ry="0.92604166"
         sodipodi:start="0"
         sodipodi:end="3.1415927"
         sodipodi:arc-type="slice"
         d="m 3.0427085,5.0270834 a 0.92604166,0.92604166 0 0 1 -0.4630209,0.8019756 0.92604166,0.92604166 0 0 1 -0.9260417,0 0.92604166,0.92604166 0 0 1 -0.4630208,-0.8019756 h 0.9260417 z" />
      <path
         style="fill:none;fill-opacity:1;stroke:#f5a7a3;stroke-width:0.264583;stroke-linecap:butt;stroke-linejoin:miter;stroke-dasharray:none;stroke-opacity:1"
         d="M 1.190625,5.0270832 2.1166666,2.3812499 3.0427082,5.0270832"
         id="path6"
         sodipodi:nodetypes="ccc" />
      <path
         style="fill:none;fill-opacity:1;stroke:#f5a7a3;stroke-width:0.264583;stroke-linecap:butt;stroke-linejoin:round;stroke-dasharray:none;stroke-opacity:1"
         d="m 6.3499999,2.1166666 h -0.79375 c -0.5291667,0 -0.5291667,0.5291667 -1.0583333,0.5291667 H 4.2333334 3.9687501 c -0.5291666,0 -0.5291666,-0.5291667 -1.0583333,-0.5291667 h -0.79375"
         id="path8"
         sodipodi:nodetypes="ccccccc" />
      <path
         style="fill:none;fill-opacity:1;stroke:#f5a7a3;stroke-width:0.264583;stroke-linecap:butt;stroke-linejoin:round;stroke-dasharray:none;stroke-opacity:1"
         id="path9"
         sodipodi:type="arc"
         sodipodi:cx="6.3499999"
         sodipodi:cy="5.0270834"
         sodipodi:rx="0.92604166"
         sodipodi:ry="0.92604166"
         sodipodi:start="0"
         sodipodi:end="3.1415927"
         sodipodi:arc-type="slice"
         d="m 7.2760416,5.0270834 a 0.92604166,0.92604166 0 0 1 -0.4630209,0.8019756 0.92604166,0.92604166 0 0 1 -0.9260417,0 0.92604166,0.92604166 0 0 1 -0.4630208,-0.8019756 h 0.9260417 z" />
      <path
         style="fill:none;fill-opacity:1;stroke:#f5a7a3;stroke-width:0.264583;stroke-linecap:butt;stroke-linejoin:miter;stroke-dasharray:none;stroke-opacity:1"
         d="M 5.4239583,5.0270832 6.3499999,2.3812499 7.2760415,5.0270832"
         id="path10"
         sodipodi:nodetypes="ccc" />
      <path
         style="fill:#f5a7a3;fill-opacity:1;stroke:#f5a7a3;stroke-width:0.132292;stroke-linecap:butt;stroke-linejoin:round;stroke-dasharray:none;stroke-opacity:1"
         d="m 4.4979166,2.3812499 v 0.5291667 c 0,0 0,0.2645833 -0.2645834,0.2645833 0,0 -0.2645833,0 -0.2645832,-0.2645833 V 2.3812499 L 4.2333332,2.1166666 Z"
         id="path11"
         sodipodi:nodetypes="cccsccc" />
      <path
         style="fill:#f5a7a3;fill-opacity:1;stroke:#f5a7a3;stroke-width:0.132292;stroke-linecap:butt;stroke-linejoin:round;stroke-dasharray:none;stroke-opacity:1"
         d="M 4.4979165,1.5875 4.2333332,1.0583333 3.96875,1.5875 c 0,0 0,0.2645833 0.2645832,0.2645833 0.2645833,0 0.2645833,-0.2645833 0.2645833,-0.2645833 z"
         id="path13"
         sodipodi:nodetypes="ccccc" />
    </g>
  </g>
</svg>
