<?xml version="1.0" encoding="UTF-8" standalone="no"?>
<!-- Created with Inkscape (http://www.inkscape.org/) -->

<svg
   version="1.1"
   id="svg1"
   width="94.774078"
   height="92.69545"
   viewBox="0 0 94.774078 92.69545"
   xmlns="http://www.w3.org/2000/svg"
   xmlns:svg="http://www.w3.org/2000/svg">
  <defs
     id="defs1" />
  <g
     id="g1">
    <path
       style="fill:#f5e5a3;fill-opacity:1;stroke:none"
       d="M 64.77408,8.3653701 40.623689,50.195448 H 28.981111 L 9.4947839,16.445448 0,0 23.893221,89.17201 43.510408,55.195448 H 59.77408 v 32.5 h -7.5 v 5 h 20 v -5 h -7.5 v -32.5 h 10.507812 c 1.141194,4.265451 4.883586,7.5 9.492188,7.5 5.49324,0 10,-4.506764 10,-10 0,-5.493236 -4.50676,-10 -10,-10 -4.608602,0 -8.350994,3.234549 -9.492188,7.5 H 64.77408 Z m -5,18.6621089 V 50.195448 H 46.397127 Z M 14.658846,35.388807 26.094392,55.195448 H 37.735017 L 25.598299,76.218885 Z M 84.77408,47.695448 c 2.791035,0 5,2.208965 5,5 0,2.791035 -2.208965,5 -5,5 -2.791035,0 -5,-2.208965 -5,-5 0,-2.791035 2.208965,-5 5,-5 z"
       id="path8" />
  </g>
</svg>
