<?xml version="1.0" encoding="UTF-8" standalone="no"?>
<!-- Created with Inkscape (http://www.inkscape.org/) -->

<svg
   width="24"
   height="24"
   viewBox="0 0 24 24"
   version="1.1"
   id="svg1"
   xml:space="preserve"
   inkscape:version="1.4 (86a8ad7, 2024-10-11)"
   sodipodi:docname="na-link.svg"
   xmlns:inkscape="http://www.inkscape.org/namespaces/inkscape"
   xmlns:sodipodi="http://sodipodi.sourceforge.net/DTD/sodipodi-0.dtd"
   xmlns="http://www.w3.org/2000/svg"
   xmlns:svg="http://www.w3.org/2000/svg"><sodipodi:namedview
     id="namedview1"
     pagecolor="#ffffff"
     bordercolor="#000000"
     borderopacity="0.25"
     inkscape:showpageshadow="2"
     inkscape:pageopacity="0.0"
     inkscape:pagecheckerboard="0"
     inkscape:deskcolor="#d1d1d1"
     inkscape:document-units="mm"
     showgrid="true"
     showguides="true"
     inkscape:zoom="31.999998"
     inkscape:cx="7.2187505"
     inkscape:cy="15.484376"
     inkscape:window-width="3840"
     inkscape:window-height="2097"
     inkscape:window-x="-8"
     inkscape:window-y="-8"
     inkscape:window-maximized="1"
     inkscape:current-layer="layer1-2"><inkscape:grid
       id="grid1"
       units="px"
       originx="-4.0000001"
       originy="-4"
       spacingx="1"
       spacingy="1"
       empcolor="#0099e5"
       empopacity="0.30196078"
       color="#0099e5"
       opacity="0.14901961"
       empspacing="10"
       enabled="true"
       visible="true" /><inkscape:page
       x="0"
       y="0"
       width="24"
       height="24"
       id="page1"
       margin="0"
       bleed="0" /></sodipodi:namedview><defs
     id="defs1"><clipPath
       clipPathUnits="userSpaceOnUse"
       id="clipPath100"><path
         style="fill:#f5a7a3;fill-opacity:1;stroke:none;stroke-width:1;stroke-linejoin:miter;stroke-dasharray:none;stroke-opacity:1"
         d="M 1.6740781,6.9124913 -0.12773774,3.8090252 16.203465,-5.5673183 32.462812,22.437946 21.575343,28.688842 7.1178123,3.7870435 Z"
         id="path100"
         mask="none"
         sodipodi:nodetypes="ccccccc" /></clipPath></defs><g
     inkscape:label="Layer 1"
     inkscape:groupmode="layer"
     id="layer1"
     transform="translate(-3.9999999,-4)"><g
       inkscape:label="Layer 1"
       id="layer1-2"
       transform="matrix(0.26458333,0,0,0.26458333,1.5998552,0.09054458)"><path
         id="rect1"
         style="fill:#a3b4f5;fill-opacity:1;stroke-width:3.77953;stroke-linecap:square"
         d="M 9.0714132 14.775895 L 9.0714132 105.48456 L 99.780076 105.48456 L 99.780076 14.775895 L 9.0714132 14.775895 z M 30.006453 28.336426 C 34.45118 28.336426 37.179522 31.330637 37.270232 35.231111 C 37.270232 39.040876 34.455431 42.125797 29.829287 42.125797 C 25.475269 42.125797 22.661472 39.040876 22.661472 35.231111 C 22.661472 31.330637 25.561727 28.336426 30.006453 28.336426 z M 70.311571 46.569694 C 79.382441 46.569694 86.190016 52.648881 86.190016 65.710935 L 86.190016 91.924026 L 72.400646 91.924026 L 72.400646 67.342332 C 72.400646 61.627684 70.406356 57.72373 65.417378 57.72373 C 61.607612 57.72373 59.335942 60.358591 58.338146 62.898435 C 57.975313 63.805522 57.887851 65.075855 57.887851 66.345777 L 57.887851 91.924026 L 44.098481 91.924026 L 44.098481 61.717332 C 44.098481 56.184101 43.918185 51.557432 43.736768 47.566249 L 55.710193 47.566249 L 56.345036 53.737509 L 56.618166 53.737509 C 58.43234 50.83483 62.873457 46.569694 70.311571 46.569694 z M 23.023185 47.566249 L 36.812555 47.566249 L 36.812555 91.924026 L 23.023185 91.924026 L 23.023185 47.566249 z " /></g></g></svg>
